<?xml version="1.0" encoding="utf-8"?>
<!-- Generator: Adobe Illustrator 27.8.1, SVG Export Plug-In . SVG Version: 6.00 Build 0)  -->
<svg version="1.1" xmlns="http://www.w3.org/2000/svg" xmlns:xlink="http://www.w3.org/1999/xlink" x="0px" y="0px"
	 viewBox="0 0 500 500" style="enable-background:new 0 0 500 500;" xml:space="preserve">
<g id="BACKGROUND" style="display:none;">
	<rect x="0.1" style="display:inline;fill:#FFFFFF;" width="500" height="500"/>
</g>
<g id="OBJECTS">
	<g>
		<path style="fill:#DEDFE0;" d="M495.45,250.97c0,66.27-26.16,126.4-68.68,170.58c-29.98,31.18-68.09,54.41-110.92,66.27
			c-20.83,5.81-42.8,8.9-65.47,8.9c-19.72,0-38.91-2.35-57.31-6.77c-46.15-11.09-87.22-35.25-119.05-68.41
			C31.47,377.37,5.34,317.21,5.34,250.97c0-135.7,109.72-245.72,245.04-245.72C385.73,5.24,495.45,115.27,495.45,250.97z"/>
		<path style="fill:#F4F4F4;" d="M426.76,421.55c-44.58,46.35-107.13,75.17-176.39,75.17c-69.26,0-131.84-28.83-176.39-75.17
			l4.22-16.68c6.38-25.06,26.07-44.52,51.18-50.55l41.96-10.04c3.54-0.87,6.93-2.07,10.14-3.62c0.15-0.06,0.31-0.15,0.46-0.25
			c5.42-2.66,10.29-6.24,14.39-10.57c5.88-6.21,10.23-13.87,12.45-22.49l3.27-12.73l0.86-3.43l0.06-0.28l4.19-16.22l1.23-4.85h63.93
			l4.78,18.54l0.43,1.67l0.25,0.93l0.03,0.22l0.89,3.46l3.27,12.7c3.85,14.95,14.17,27.19,27.82,33.55
			c3.05,1.42,6.29,2.56,9.61,3.37l41.96,10.04c25.11,6.02,44.8,25.49,51.18,50.55L426.76,421.55z"/>
		<g>
			<path style="fill:#6E7174;" d="M426.76,421.55c-44.58,46.35-107.13,75.17-176.39,75.17c-69.26,0-131.84-28.83-176.39-75.17
				l4.22-16.68c6.38-25.06,26.07-44.52,51.18-50.55l41.96-10.04c3.54-0.87,6.93-2.07,10.14-3.62l37.19,61.89
				c14.54,24.2,49.54,24.2,64.08,0l37.04-61.65c3.05,1.42,6.29,2.56,9.61,3.37l41.96,10.04c25.11,6.02,44.8,25.49,51.18,50.55
				L426.76,421.55z"/>
			<g>
				<path style="fill:#D2D4DA;" d="M260.42,444.76c0,4.4-3.56,7.97-7.95,7.97c-4.39,0-7.95-3.57-7.95-7.97
					c0-4.4,3.56-7.97,7.95-7.97C256.86,436.79,260.42,440.36,260.42,444.76z"/>
				<path style="fill:#D2D4DA;" d="M260.42,474.54c0,4.4-3.56,7.97-7.95,7.97c-4.39,0-7.95-3.57-7.95-7.97
					c0-4.4,3.56-7.97,7.95-7.97C256.86,466.57,260.42,470.13,260.42,474.54z"/>
			</g>
		</g>
		<path style="fill:#D2D4DA;" d="M287.78,290.98c-5.42,23.88-20.1,41.01-37.38,41.01c-17.29,0-31.99-17.17-37.4-41.08l4.17-16.22
			l1.25-4.85h63.92l4.76,18.54l0.43,1.66L287.78,290.98z"/>
		<path style="fill:#F4F4F4;" d="M169.98,200.09c-31.83-35.82-10.59,51.74,7.02,41.51C207.95,223.61,169.98,200.09,169.98,200.09z"
			/>
		<path style="fill:#F4F4F4;" d="M330.82,200.09c31.83-35.82,10.59,51.74-7.02,41.51C292.85,223.61,330.82,200.09,330.82,200.09z"/>
		<path style="fill:#555A5E;" d="M334.4,173.04c0,8.28-0.92,16.31-2.65,23.98v0.03c-9.3,41.43-42.18,72.02-81.34,72.02
			c-46.4,0-84.02-42.98-84.02-96.03c0-29.41,11.55-55.71,29.76-73.32c14.64-14.18,33.58-22.74,54.26-22.74
			C296.81,76.99,334.4,119.99,334.4,173.04z"/>
		<path style="fill:#F4F4F4;" d="M324.45,174.28c0,2.72-0.15,5.38-0.46,8.03c-0.68,7.04-8.47,80.98-23.97,96.52
			c-8.1,8.16-14.66,15.57-22.12,20.92c-7.46,5.38-15.77,8.71-27.51,8.71c-11.71,0-20.06-3.34-27.51-8.68
			c-7.43-5.38-13.99-12.79-22.12-20.95c-7.33-7.35-12.94-27.84-16.88-48.11l-0.03-0.03c-0.4-2.19-0.83-4.36-1.2-6.52
			c-0.19-1.05-0.37-2.1-0.55-3.15c-3.57-20.95-5.36-39.27-5.36-39.27c-0.22-2.44-0.37-4.94-0.37-7.48c0-0.65,0.03-1.3,0.03-1.95
			c0.15-5.84,0.99-11.52,2.4-16.96c0.06-0.25,0.12-0.49,0.18-0.74c4.22-15.39,13.22-28.77,25.36-38.44
			c11.62-9.3,26.07-15.17,41.84-16.04c1.39-0.09,2.8-0.12,4.22-0.12c20.46,0,38.98,8.31,52.38,21.72
			C316.16,135.2,324.45,153.77,324.45,174.28z"/>
		<path style="fill:#DEDFE0;" d="M262.34,247.24c0,5.13-5.21,9.28-11.65,9.28c-6.41,0-11.62-4.15-11.62-9.28
			c0-0.61,0.06-1.23,0.25-1.8c1.02,4.26,5.73,7.48,11.37,7.48c5.67,0,10.38-3.22,11.4-7.48
			C262.28,246.02,262.34,246.63,262.34,247.24z"/>
		<path style="fill:#555A5E;" d="M178.62,197.99c0,0,37.25,7.12,72.09-50.81V88.77l-50.62,20.59l-25.81,37.34l-2.93,31.6
			L178.62,197.99z"/>
		<path style="fill:#D2D4DA;" d="M199.36,199.88L199.36,199.88c-2.33,0.97-4.99-0.14-5.96-2.47l-9.21-22.28
			c-0.96-2.33,0.14-5.01,2.47-5.97l0,0c2.33-0.97,4.99,0.14,5.96,2.47l9.21,22.28C202.79,196.24,201.69,198.92,199.36,199.88z"/>
		<path style="fill:#555A5E;" d="M322.8,197.99c0,0-37.25,7.12-72.09-50.81V88.77l50.62,20.59l25.81,37.34l2.93,31.6L322.8,197.99z"
			/>
		<path style="fill:#555A5E;" d="M341.57,306.67v108.51c-29.05,0-52.62-23.64-52.62-52.8v-72.27c3.51-3.49,7.09-7.29,11.06-11.28
			c3.85-3.86,7.21-11.31,10.14-20.48c6.01,2.66,11.43,6.4,16.02,11C335.68,278.93,341.57,292.09,341.57,306.67z"/>
	</g>
	<g>
		<path style="fill:#DEDFE0;" d="M495.1,249.77c0,65.99-26.2,125.9-68.78,169.91c-44.65,46.15-107.32,74.86-176.71,74.86
			c-69.4,0-132.08-28.71-176.71-74.87C30.29,375.65,4.1,315.75,4.1,249.77C4.1,114.58,114.02,5,249.61,5
			C385.19,5,495.1,114.58,495.1,249.77z"/>
		<g>
			<g>
				<path style="fill:#555A5E;" d="M201.01,115.18L201.01,115.18c0-11.11,9.04-20.13,20.18-20.13h51.73
					c32.27,0,58.43,26.08,58.43,58.26v62.55H208.33L201.01,115.18z"/>
				<path style="fill:#555A5E;" d="M181.73,223.09h-17.29v-83.93c0-18.78,19.29-31.42,36.58-23.98l0,0
					C204.93,136.04,181.73,223.09,181.73,223.09z"/>
			</g>
			<g>
				<path style="fill:#D2D4DA;" d="M287.06,289.62c-5.43,23.79-20.14,40.85-37.45,40.85c-17.32,0-32.05-17.1-37.47-40.92l4.18-16.16
					l1.25-4.83h64.04l4.77,18.46l0.43,1.66L287.06,289.62z"/>
				<g>
					<g>
						<path style="fill:#F4F4F4;" d="M330.18,199.09c31.89-35.67,10.61,51.54-7.03,41.34C292.14,222.51,330.18,199.09,330.18,199.09
							z"/>
						<path style="fill:#F4F4F4;" d="M426.31,419.67c-16.58,17.11-35.62,31.82-56.55,43.58c-32.29,18.13-69.08,29.14-108.31,30.99
							c-3.92,0.22-7.87,0.31-11.85,0.31c-19.79,0-39.02-2.34-57.44-6.74c-25.68-6.12-49.76-16.28-71.58-29.76
							c-17.5-10.8-33.49-23.7-47.69-38.38l4.23-16.62c6.39-24.96,26.11-44.35,51.27-50.35l2.78-0.65l30.84-7.36l8.43-2
							c3.55-0.86,6.95-2.06,10.16-3.6c2.69-1.29,5.25-2.8,7.65-4.52c2.59-1.85,5.03-3.94,7.22-6.25c5.9-6.19,10.25-13.82,12.47-22.4
							l3.27-12.68l0.86-3.42l0.06-0.28l4.2-16.16l1.23-4.83h64.05l4.78,18.47l0.43,1.66l0.25,0.92l0.03,0.22l0.9,3.45l3.27,12.65
							c3.06,11.76,10.12,21.82,19.72,28.65c5.25,3.79,11.27,6.59,17.78,8.13l7.78,1.85l34.26,8.16c25.16,6,44.88,25.39,51.27,50.35
							L426.31,419.67z"/>
						<path style="fill:#D2D4DA;" d="M287.06,289.62c-5.43,23.79-20.14,40.85-37.45,40.85c-17.32,0-32.05-17.1-37.47-40.92
							l4.18-16.16l1.25-4.83h64.04l4.77,18.46l0.43,1.66L287.06,289.62z"/>
						<path style="fill:#F4F4F4;" d="M169.04,199.09c-31.89-35.67-10.61,51.54,7.03,41.34
							C207.08,222.51,169.04,199.09,169.04,199.09z"/>
						<path style="fill:#F4F4F4;" d="M323.81,173.39c0,2.71-0.15,5.35-0.46,8c-0.25,2.4-1.33,12.65-3.24,25.7l-0.03,0.03
							c-1.05,7.23-2.41,15.33-4.01,23.45c-0.03,0.09-0.03,0.22-0.06,0.31c-3.92,19.79-9.45,39.49-16.67,46.66
							c-8.15,8.13-14.69,15.51-22.16,20.84c-7.47,5.35-15.84,8.68-27.56,8.68c-11.73,0-20.09-3.32-27.56-8.68
							c-7.44-5.32-14.01-12.71-22.16-20.84c-7.22-7.2-12.75-26.93-16.7-46.69v-0.03c-0.03-0.03-0.03-0.06-0.03-0.09
							c-0.49-2.55-0.96-5.11-1.42-7.63c-0.19-1.05-0.37-2.09-0.56-3.14c-0.77-4.43-1.45-8.77-2.07-12.83
							c-2.22-14.99-3.3-26.28-3.3-26.28c-0.25-2.43-0.37-4.92-0.37-7.45c0-0.65,0-1.29,0.03-1.94c0.15-5.82,0.96-11.48,2.41-16.9
							c0.06-0.25,0.12-0.49,0.18-0.74c8.24-30.04,35-52.47,67.29-54.26c1.42-0.09,2.81-0.12,4.26-0.12
							c20.5,0,39.05,8.28,52.47,21.67c11.61,11.54,19.38,26.93,21.27,44.07C323.65,167.88,323.81,170.62,323.81,173.39z"/>
						<path style="fill:#DEDFE0;" d="M261.27,239.89c0,5.11-5.22,9.24-11.67,9.24c-6.42,0-11.64-4.13-11.64-9.24
							c0-0.61,0.06-1.22,0.25-1.79c1.02,4.24,5.74,7.45,11.39,7.45c5.68,0,10.4-3.21,11.42-7.45
							C261.2,238.67,261.27,239.28,261.27,239.89z"/>
					</g>
				</g>
			</g>
			<path style="fill:#555A5E;" d="M326.04,173.99c0,2.79-0.16,5.52-0.48,8.24c-0.25,2.47-5.46,24.85-5.46,24.85
				c-106.65-25.84-115.17-71.04-115.17-71.04c0.35,43.21-25.83,71.07-25.83,71.07c-2.29-15.44-5.53-25.45-5.53-25.45
				c-0.25-2.5-0.38-5.07-0.38-7.67c0-0.67,0-1.33,0.03-2c0.16-5.99,0.99-11.82,2.48-17.4c0.06-0.25,0.13-0.51,0.19-0.76
				c8.49-30.94,36.06-54.05,69.32-55.89c1.46-0.1,2.89-0.13,4.39-0.13c21.11,0,40.22,8.53,54.05,22.32
				c11.96,11.89,19.97,27.74,21.91,45.4C325.88,168.32,326.04,171.14,326.04,173.99z"/>
			<g>
				<path style="fill:#6E7174;" d="M426.32,419.84c-44.66,46.13-107.32,74.85-176.71,74.85c-69.39,0-132.08-28.71-176.71-74.88
					l4.23-16.59c6.39-24.99,26.11-44.38,51.27-50.38l33.68-8l8.36-2c3.77-0.89,7.41-2.22,10.8-3.91
					c17.1,18.16,41.39,29.51,68.37,29.51c26.98,0,51.27-11.36,68.37-29.51c3.4,1.66,7.01,3.02,10.8,3.91l7.32,1.75l34.73,8.25
					c25.16,6,44.88,25.39,51.24,50.38L426.32,419.84z"/>
				<path style="fill:#555A5E;" d="M336.09,344.59c-7.53,9.11-35.22,37.95-86.49,39.98c-59.08,2.37-85.93-37.33-87.54-39.73l8.36-2
					c3.77-0.89,7.41-2.22,10.8-3.91c17.1,18.16,41.39,29.51,68.37,29.51c26.98,0,51.27-11.36,68.37-29.51
					c3.4,1.66,7.01,3.02,10.8,3.91L336.09,344.59z"/>
			</g>
		</g>
	</g>
</g>
</svg>
