<svg width="46" height="64" viewBox="0 0 46 64" fill="none" xmlns="http://www.w3.org/2000/svg">
<path d="M38.1765 36.4927C38.2423 36.3814 38.3085 36.2922 38.3742 36.2206C40.8802 32.3122 42.2476 27.5299 42.2476 22.5927C42.2476 10.1351 33.6588 0 23.1021 0C12.5456 0 3.95703 10.1351 3.95703 22.5927C3.95703 27.5857 5.35565 32.4188 7.91627 36.3504C7.9434 36.3883 7.97077 36.4296 7.99802 36.4744C8.0809 36.5999 8.16502 36.7244 8.25015 36.8479C9.20765 38.0902 10.4353 37.8033 10.7896 37.6857C10.8228 37.6732 10.8565 37.6609 10.89 37.6486L10.8904 37.6484C12.155 37.1801 13.5593 36.7862 15.0764 36.4762L17.7281 35.9342L15.7281 34.1104C14.101 32.6273 13.0421 30.6158 12.747 28.4467L12.5975 27.3506L11.4948 27.2608C9.67877 27.1132 8.25627 25.5695 8.25627 23.7463C8.25627 21.9295 9.61764 20.4203 11.423 20.2362L12.6384 20.1121L12.6549 19.1453C13.88 18.7843 19.2813 17.0383 23.076 13.3227C23.9701 14.3663 27.3225 17.8163 33.551 19.1645L33.5668 20.1122L34.7828 20.2363C36.5875 20.4207 37.9486 21.9297 37.9486 23.7463C37.9486 25.5693 36.5261 27.1129 34.7102 27.2608L33.6075 27.3506L33.458 28.4471C33.1627 30.6154 32.1042 32.6268 30.4772 34.1102L28.4772 35.9338L31.1292 36.4756C32.7137 36.7994 34.1755 37.2153 35.4848 37.7123C35.9642 37.8478 37.2606 38.0345 38.1765 36.4927Z" fill="#694B4B"/>
<path d="M28.2535 40.8102V35.8086L26.5294 36.2586C25.7553 36.4605 24.9585 36.5626 24.1584 36.5624H22.0468C21.2407 36.5624 20.4377 36.4587 19.6603 36.2542L17.9337 35.7998V40.8068L12.7988 42.0355L13.9155 46.0215L14.3784 46.303C15.0714 46.725 16.9616 47.7679 19.5392 48.333C20.7516 48.5988 21.9737 48.7335 23.1716 48.7337H23.1721C26.1417 48.7337 29.0479 47.9139 31.8097 46.2974L32.29 46.0167L33.3862 42.1038L28.2535 40.8102Z" fill="#FBCB99"/>
<path d="M21.1909 48.3325C18.6132 47.7673 16.7232 46.7245 16.0302 46.3025L14.9316 42.2663L19.1399 41.2521V36.4348L17.9337 35.7993V40.8063L12.7988 42.0351L13.9155 46.021L14.3784 46.3025C15.0714 46.7245 16.9616 47.7674 19.5392 48.3325C20.7516 48.5983 21.9737 48.733 23.1716 48.7332H23.1721C23.4426 48.7332 23.7122 48.724 23.9814 48.7104C23.0425 48.6608 22.1092 48.5344 21.1909 48.3325Z" fill="#EDBA89"/>
<path d="M29.9285 46.8849C27.7411 47.876 25.4524 48.3785 23.1257 48.3785C21.9149 48.3778 20.7079 48.2434 19.5267 47.9778C18.4139 47.7278 17.3198 47.3659 16.2748 46.9019L14.2637 46.0089L19.3525 64.0004H26.8525L31.9529 45.9678L29.9285 46.8849Z" fill="#CBE6FE"/>
<path d="M14.2637 46.0083L19.3527 63.9998H21.0042L16.1527 46.8471L14.2637 46.0083Z" fill="#D2D2D7"/>
<path d="M40.6146 44.8808C40.002 44.5307 39.309 44.2 38.5849 43.8927L38.2573 43.7563C36.0287 42.8438 33.58 42.1582 32.2928 41.8247L26.0813 64H43.6128C45.5665 64 45.9136 62.463 45.9674 61.7222V55.1127C45.9675 49.7089 43.0705 46.4457 40.6146 44.8808ZM13.7069 41.8248C12.4197 42.1583 9.97096 42.8438 7.74246 43.7565L7.41484 43.8928C6.69071 44.2001 5.99771 44.5308 5.38509 44.881C2.92922 46.4458 0.0322266 49.7091 0.0322266 55.1128V61.7223C0.0863515 62.463 0.433226 64 2.38697 64H19.9184L16.8127 52.9124L13.7069 41.8248Z" fill="#000B6D"/>
<path d="M2.30322 61.7218V55.1122C2.30322 49.7085 5.20034 46.4452 7.65609 44.8803C8.26871 44.5302 8.96171 44.1995 9.68583 43.8922L10.0135 43.7558C11.3171 43.2221 12.6945 42.7668 13.8721 42.4133L13.7071 41.8242C12.4198 42.1577 9.97108 42.8432 7.74259 43.7558L7.41496 43.8922C6.69084 44.1995 5.99784 44.5301 5.38522 44.8803C2.92935 46.4452 0.0322266 49.7085 0.0322266 55.1122V61.7217C0.0853515 62.4517 0.424226 63.9535 2.30322 63.9974V61.7218ZM38.5534 63.9997V54.9201C38.5534 54.3498 38.0914 53.8878 37.5212 53.8878C36.9509 53.8878 36.4889 54.3498 36.4889 54.9201V63.9997H38.5534Z" fill="#7D8AFF"/>
<path d="M9.39067 64V54.9204C9.39067 54.3502 8.92867 53.8882 8.35842 53.8882C7.78817 53.8882 7.32617 54.3502 7.32617 54.9204V64H9.39067Z" fill="#7D8AFF"/>
<path d="M35.4921 19.4081C35.2187 19.3228 34.929 19.303 34.6466 19.3502C34.3641 19.3975 34.0967 19.5105 33.8659 19.6801C33.6353 19.85 33.4479 20.0717 33.3186 20.3273C33.1894 20.5829 33.1221 20.8653 33.1221 21.1517V26.3561C33.1221 26.9366 33.3982 27.4827 33.8659 27.8266C34.0965 27.9964 34.3638 28.1096 34.6462 28.157C34.9286 28.2044 35.2182 28.1846 35.4916 28.0994C35.8417 27.9905 36.1856 27.833 36.5137 27.6317C36.7067 27.5132 36.8761 27.3599 37.0133 27.1797C37.2147 27.0758 37.3951 26.9354 37.5454 26.7657C38.2833 25.9312 38.6898 24.8617 38.6898 23.7534C38.6898 21.7506 37.4048 20.0043 35.4921 19.4081Z" fill="#FBCB99"/>
<path d="M12.3202 19.6802C12.0895 19.5106 11.8221 19.3976 11.5397 19.3503C11.2573 19.303 10.9677 19.3227 10.6943 19.4078C8.78172 20.0044 7.49609 21.7508 7.49609 23.7533C7.49609 25.7568 8.78172 27.5031 10.6943 28.0994C10.9677 28.1846 11.2573 28.2043 11.5397 28.1569C11.8221 28.1096 12.0894 27.9965 12.32 27.8269C12.5507 27.6572 12.7382 27.4357 12.8675 27.1803C12.9968 26.9248 13.0643 26.6425 13.0645 26.3562V21.1513C13.0645 20.8649 12.9972 20.5825 12.8679 20.3269C12.7386 20.0714 12.551 19.8498 12.3202 19.6802Z" fill="#EDBA89"/>
<path d="M34.2248 19.4789C34.2248 19.4789 34.2324 19.4411 34.2352 19.3811V19.2901C34.2239 19.0718 34.1278 18.7145 33.6743 18.493L33.1803 18.3745C28.4013 17.2265 25.5406 14.9124 24.1857 13.5288L24.1855 13.5285C23.0331 12.4734 21.8382 13.5285 21.8382 13.5285L21.8381 13.5284C18.5831 16.3598 14.5466 17.8343 12.9315 18.3445L12.7151 18.4128L12.7146 18.413C12.164 18.5939 12.0077 18.9455 11.9697 19.1956V27.1736C11.9697 32.7301 16.4903 37.2507 22.047 37.2507H24.1586C29.7149 37.2507 34.2352 32.7301 34.2352 27.1736V19.4704L34.2248 19.4789Z" fill="#FBCB99"/>
<path d="M23.8015 13.2518C22.7823 12.696 21.8382 13.5284 21.8382 13.5284L21.8381 13.5283C18.5831 16.3596 14.5466 17.8341 12.9315 18.3444L12.7151 18.4126L12.7146 18.4129C12.164 18.5938 12.0077 18.9454 11.9697 19.1955V27.1735C11.9697 32.73 16.4903 37.2506 22.047 37.2506H23.6986C18.142 37.2506 13.6213 32.73 13.6213 27.1735V19.7773C13.6213 18.8681 14.2882 18.4705 14.6703 18.3165C14.7526 18.2903 14.839 18.2621 14.9317 18.2313L14.9325 18.2311H14.9322C16.7786 17.6169 20.6701 16.0875 23.7571 13.2919L23.8015 13.2518Z" fill="#EDBA89"/>
<path d="M23.9875 26.9706C24.367 26.9706 24.6756 27.2793 24.6756 27.6587C24.6756 28.0381 24.3669 28.3468 23.9875 28.3468H22.2291C22.0467 28.3466 21.8718 28.2741 21.7428 28.1451C21.6138 28.0161 21.5412 27.8411 21.541 27.6587V24.3043C21.541 23.9248 21.8498 23.6162 22.2291 23.6162C22.6085 23.6162 22.9173 23.925 22.9173 24.3043V26.9706H23.9875Z" fill="#EDBA89"/>
<path d="M7.9979 36.4746C8.08077 36.6001 8.1649 36.7246 8.25002 36.8481C9.24552 38.1399 10.5333 37.7782 10.8275 37.6728C10.8488 37.6648 10.8691 37.6566 10.8903 37.6486L10.7246 37.4244C7.69177 33.3177 6.02153 28.0504 6.02153 22.5927C6.02153 10.5437 14.0558 0.668124 24.1344 0.0329999C23.7908 0.0112521 23.4465 0.000246762 23.1022 0C12.5456 0 3.95703 10.1351 3.95703 22.5927C3.95703 27.5857 5.35565 32.4188 7.91627 36.3504C7.94327 36.3883 7.97065 36.4297 7.9979 36.4746Z" fill="#563B3B"/>
</svg>
