<svg width="54" height="58" viewBox="0 0 54 58" fill="none" xmlns="http://www.w3.org/2000/svg">
<path d="M32 37V29H22V37L27 42L32 37Z" fill="#FBCB99"/>
<path d="M13 17.77V8C13 5.87827 13.8429 3.84344 15.3431 2.34315C16.8434 0.842855 18.8783 0 21 0H29C30.0609 0 31.0783 0.421427 31.8284 1.17157C32.5786 1.92172 33 2.93913 33 4C33 3.46957 33.2107 2.96086 33.5858 2.58579C33.9609 2.21071 34.4696 2 35 2H36C37.3261 2 38.5979 2.52678 39.5355 3.46447C40.4732 4.40215 41 5.67392 41 7V17.77H13Z" fill="#58595B"/>
<path d="M27.0002 42L24.8452 43.437L24.5742 46.191L25.7352 46.578C26.5563 46.8517 27.4441 46.8517 28.2652 46.578L29.4262 46.191L29.1552 43.437L27.0002 42Z" fill="#2B67B3"/>
<path d="M19 38L11.928 39.861C8.51001 40.7605 5.48605 42.7664 3.32819 45.5656C1.17033 48.3648 3.63117e-05 51.7996 0 55.334V58H23L24.574 46.191L24.845 43.437L21 46L19 38ZM42.072 39.861L35 38L33 46L29.155 43.437L29.426 46.191L31 58H54V55.334C54 51.7996 52.8297 48.3648 50.6718 45.5656C48.514 42.7664 45.49 40.7605 42.072 39.861Z" fill="#BDDBFF"/>
<path d="M11.928 42.861L20 41L22 48L24.574 46.191L24.845 43.437L21 46L19 38L11.928 39.861C8.51001 40.7605 5.48605 42.7664 3.32819 45.5656C1.17033 48.3648 3.63117e-05 51.7996 0 55.334V58H0.0139999C0.0850099 54.5247 1.28628 51.1671 3.43598 48.4355C5.58568 45.7039 8.56677 43.747 11.928 42.861ZM42.072 39.861L35 38L33 46L29.155 43.437L29.426 46.191L32 48L34 41L42.072 42.861C45.4332 43.747 48.4143 45.7039 50.564 48.4355C52.7137 51.1671 53.915 54.5247 53.986 58H54V55.334C54 51.7996 52.8297 48.3648 50.6718 45.5656C48.514 42.7664 45.49 40.7605 42.072 39.861Z" fill="#9BC9FF"/>
<path d="M28.265 46.5779C27.4439 46.8516 26.5561 46.8516 25.735 46.5779L24.574 46.1909L23 57.9999H31L29.426 46.1909L28.265 46.5779Z" fill="#000B6D"/>
<path d="M35 12H19C18.4696 12 17.9609 12.2107 17.5858 12.5858C17.2107 12.9609 17 13.4696 17 14V24C17 26.6522 18.0536 29.1957 19.9289 31.0711C21.8043 32.9464 24.3478 34 27 34C29.6522 34 32.1957 32.9464 34.0711 31.0711C35.9464 29.1957 37 26.6522 37 24V14C37 13.4696 36.7893 12.9609 36.4142 12.5858C36.0391 12.2107 35.5304 12 35 12Z" fill="#FBCB99"/>
<path d="M39 23C39.7956 23 40.5587 22.6839 41.1213 22.1213C41.6839 21.5587 42 20.7956 42 20C42 19.2044 41.6839 18.4413 41.1213 17.8787C40.5587 17.3161 39.7956 17 39 17H37V23H39ZM15 23H17V17H15C14.2044 17 13.4413 17.3161 12.8787 17.8787C12.3161 18.4413 12 19.2044 12 20C12 20.7956 12.3161 21.5587 12.8787 22.1213C13.4413 22.6839 14.2044 23 15 23Z" fill="#FBCB99"/>
<path d="M35 38L32 37L27 42L33 46L35 38ZM27 42L22 37L19 38L21 46L27 42ZM41 51C40.7348 51 40.4804 51.1054 40.2929 51.2929C40.1054 51.4804 40 51.7348 40 52V58H42V52C42 51.7348 41.8946 51.4804 41.7071 51.2929C41.5196 51.1054 41.2652 51 41 51ZM13 51C12.7348 51 12.4804 51.1054 12.2929 51.2929C12.1054 51.4804 12 51.7348 12 52V58H14V52C14 51.7348 13.8946 51.4804 13.7071 51.2929C13.5196 51.1054 13.2652 51 13 51Z" fill="#4A98F7"/>
<path d="M31 21C31.2652 21 31.5196 20.8946 31.7071 20.7071C31.8946 20.5196 32 20.2652 32 20V19C32 18.7348 31.8946 18.4804 31.7071 18.2929C31.5196 18.1054 31.2652 18 31 18C30.7348 18 30.4804 18.1054 30.2929 18.2929C30.1054 18.4804 30 18.7348 30 19V20C30 20.2652 30.1054 20.5196 30.2929 20.7071C30.4804 20.8946 30.7348 21 31 21ZM31.2 28.1C31.4122 27.9409 31.5524 27.704 31.59 27.4414C31.6275 27.1789 31.5591 26.9122 31.4 26.7C31.2409 26.4878 31.004 26.3476 30.7414 26.3101C30.4789 26.2725 30.2122 26.3409 30 26.5C29.1328 27.145 28.0808 27.4933 27 27.4933C25.9192 27.4933 24.8672 27.145 24 26.5C23.8949 26.4212 23.7754 26.3639 23.6482 26.3313C23.521 26.2987 23.3886 26.2915 23.2586 26.3101C23.1286 26.3286 23.0035 26.3726 22.8905 26.4395C22.7775 26.5064 22.6788 26.5949 22.6 26.7C22.5212 26.8051 22.4639 26.9246 22.4313 27.0518C22.3987 27.179 22.3915 27.3114 22.4101 27.4414C22.4286 27.5714 22.4726 27.6965 22.5395 27.8095C22.6064 27.9225 22.6949 28.0212 22.8 28.1C24.014 29.0033 25.4868 29.4911 27 29.4911C28.5132 29.4911 29.986 29.0033 31.2 28.1ZM24 20V19C24 18.7348 23.8946 18.4804 23.7071 18.2929C23.5196 18.1054 23.2652 18 23 18C22.7348 18 22.4804 18.1054 22.2929 18.2929C22.1054 18.4804 22 18.7348 22 19V20C22 20.2652 22.1054 20.5196 22.2929 20.7071C22.4804 20.8946 22.7348 21 23 21C23.2652 21 23.5196 20.8946 23.7071 20.7071C23.8946 20.5196 24 20.2652 24 20Z" fill="#58595B"/>
</svg>
