<svg width="64" height="60" viewBox="0 0 64 60" fill="none" xmlns="http://www.w3.org/2000/svg">
<path d="M64 20.625C64 9.234 54.6408 0 43.25 0C31.8681 0 22.625 9.2825 22.625 20.625C22.625 25.0244 24.0134 29.093 26.3604 32.4412L25.906 37.5052L32 37.8985C34.2345 39.3569 36.78 40.3613 39.5 40.8666V46.875H35.75C34.6999 46.875 33.875 47.6999 33.875 48.75V52.5C33.875 53.5499 34.6999 54.375 35.75 54.375H39.5V58.125C39.5 59.1749 40.3249 60 41.375 60H45.125C46.1751 60 47 59.1749 47 58.125V54.375H50.75C51.8001 54.375 52.625 53.5499 52.625 52.5V48.75C52.625 47.6999 51.8001 46.875 50.75 46.875H47V40.893C56.5977 39.1274 64 30.7334 64 20.625ZM43.25 33.75C41.2351 33.75 39.3474 33.2562 37.6396 32.4412L35.3851 28.5019L32 27.2775C30.8372 25.3194 30.125 23.0626 30.125 20.625C30.125 13.6835 35.9368 7.5 43.25 7.5C50.4864 7.5 56.5 13.3886 56.5 20.625C56.5 27.8614 50.4864 33.75 43.25 33.75Z" fill="#000B6D"/>
<path d="M20.75 0C9.35925 0 0 9.234 0 20.625C0 30.7334 7.40225 39.1274 17 40.893V46.875H14.1875C13.8445 46.8747 13.5081 46.9686 13.2149 47.1466C12.9217 47.3245 12.683 47.5795 12.5249 47.8839C12.3661 48.1879 12.2938 48.5297 12.3161 48.872C12.3384 49.2143 12.4543 49.5439 12.6512 49.8247L19.2138 59.1997C19.5654 59.7015 20.1384 59.9999 20.75 59.9999C21.3616 59.9999 21.9347 59.7014 22.2862 59.1997L28.8487 49.8247C29.0457 49.5439 29.1616 49.2143 29.1839 48.872C29.2062 48.5297 29.1339 48.1879 28.9751 47.8839C28.817 47.5795 28.5783 47.3245 28.2851 47.1466C27.9919 46.9686 27.6555 46.8747 27.3125 46.875H24.5V40.8666C27.22 40.3613 29.7655 39.3569 32 37.8985C29.7896 36.4553 27.8754 34.603 26.3604 32.4412C24.6526 33.2562 22.7649 33.75 20.75 33.75C13.5136 33.75 7.5 27.8614 7.5 20.625C7.5 13.3886 13.5136 7.5 20.75 7.5C27.7874 7.5 33.875 13.4204 33.875 20.625C33.875 23.0626 33.1628 25.3194 32 27.2775C33.3281 29.5141 35.2796 31.3153 37.6396 32.4414C39.9866 29.093 41.375 25.0244 41.375 20.625C41.375 9.312 32.1649 0 20.75 0Z" fill="#7D8AFF"/>
</svg>
