<svg width="74" height="70" viewBox="0 0 74 70" fill="none" xmlns="http://www.w3.org/2000/svg">
<g filter="url(#filter0_d_74_326)">
<path d="M63.25 33.5938H14.0312C13.161 33.5938 12.3264 33.2629 11.7111 32.6739C11.0957 32.0849 10.75 31.2861 10.75 30.4531H66.5312C66.5312 31.2861 66.1855 32.0849 65.5702 32.6739C64.9548 33.2629 64.1202 33.5938 63.25 33.5938Z" fill="#54678C"/>
<path d="M18.4062 31.5H31.5312C32.9817 31.5 34.3727 30.9486 35.3982 29.9669C36.4238 28.9853 37 27.6539 37 26.2657V23.0549C37 17.8907 32.6742 10.5625 31.3858 10.5625H18.5517C17.2633 10.5625 12.9375 17.8907 12.9375 23.0549V26.2657C12.9375 27.6539 13.5137 28.9853 14.5393 29.9669C15.5648 30.9486 16.9558 31.5 18.4062 31.5ZM33.4672 2.48171L31.1812 3.57569C31.0132 3.65626 30.8209 3.67776 30.638 3.63642C30.4551 3.59509 30.2931 3.49356 30.1805 3.34956L28.7313 1.49974C28.6623 1.41184 28.5744 1.33914 28.4735 1.28654C28.3727 1.23394 28.2612 1.20267 28.1466 1.19483C28.0321 1.18699 27.9171 1.20277 27.8094 1.2411C27.7018 1.27943 27.604 1.33943 27.5227 1.41703L25.6217 3.2365C25.5405 3.31443 25.4428 3.37471 25.3351 3.41324C25.2274 3.45177 25.1123 3.46766 24.9977 3.45981C24.883 3.45196 24.7714 3.42057 24.6706 3.36776C24.5697 3.31496 24.4819 3.24198 24.4131 3.1538L23.117 1.49974C23.048 1.41184 22.9602 1.33914 22.8593 1.28654C22.7585 1.23394 22.647 1.20267 22.5324 1.19483C22.4179 1.18699 22.3029 1.20277 22.1952 1.2411C22.0876 1.27943 21.9898 1.33943 21.9084 1.41703L19.6881 3.54219C19.587 3.63901 19.4607 3.70821 19.3222 3.74263C19.1838 3.77705 19.0382 3.77544 18.9006 3.73796L15.5811 2.83031C15.429 2.78904 15.2676 2.79163 15.1171 2.83779C14.9666 2.88394 14.8337 2.97159 14.735 3.08975C14.6363 3.20791 14.5762 3.35133 14.5623 3.50202C14.5484 3.65272 14.5813 3.80398 14.6569 3.93686L18.4062 10.5625H31.5312L34.5664 3.46367C34.853 2.80728 34.1322 2.1645 33.4672 2.48171Z" fill="#7D8AFF"/>
<path d="M31.5312 31.4998C32.9816 31.4998 34.3726 30.9483 35.3982 29.9667C36.4238 28.985 37 27.6536 37 26.2654V23.0546C37 17.8904 32.6742 10.5623 31.3857 10.5623H18.5517C17.8211 10.5623 25.5079 11.0135 29.3437 16.8435C32.2717 21.2938 31.5312 31.4998 31.5312 31.4998ZM33.4671 2.48145L31.9206 3.22159C28.9084 6.11467 25.1293 8.16718 20.9896 9.15842L18.0146 9.8703L18.4062 10.5623H31.5312L34.5664 3.46342C34.8529 2.80703 34.1321 2.16425 33.4671 2.48145Z" fill="#000B6D"/>
<path d="M33.7188 29.4062H20.5938C19.1433 29.4062 17.7523 28.8548 16.7268 27.8731C15.7012 26.8915 15.125 25.5601 15.125 24.1719V20.9611C15.125 17.5148 17.05 13.1148 18.7147 10.5625H18.5517C17.2633 10.5625 12.9375 17.8906 12.9375 23.0549V26.2656C12.9375 27.6539 13.5137 28.9853 14.5393 29.9669C15.5648 30.9485 16.9558 31.5 18.4062 31.5H31.5312C33.6061 31.5 35.3889 30.3809 36.3164 28.752C35.5217 29.1754 34.6283 29.4005 33.7188 29.4062Z" fill="#000B6D"/>
<path d="M40.2812 2.1875H51.2188V31.5H40.2812V2.1875Z" fill="#CBE6FE"/>
<path d="M51.2188 14.75L46.8438 18.9375L42.4688 23.125H44.6562V31.5H51.2188V14.75Z" fill="#54678C"/>
<path d="M34.0469 14.75H30.4375V31.5H40.2812V14.75H34.0469Z" fill="#CBE6FE"/>
<path d="M53.4062 26.2656H57.7812V31.5H53.4062V26.2656Z" fill="#1D2943"/>
<path d="M65.117 29.4062C64.5559 29.4063 64.0059 29.5558 63.5285 29.8382C63.0512 30.1205 62.6654 30.5245 62.4144 31.0048L62.1562 31.5L58.875 37.7812L51.2188 40.9219C51.2188 39.8113 50.7578 38.7462 49.9373 37.9609C49.1169 37.1756 48.0041 36.7344 46.8438 36.7344H31.0959C24.9768 36.7342 19.0105 38.5643 14.0312 41.9688V57.6719H39.8503C45.1353 57.6719 50.3131 56.2502 54.7942 53.5692C58.1445 51.5656 61.0173 48.9104 63.2266 45.7757C65.4358 42.6411 66.9321 39.0971 67.6184 35.3734L68.0931 32.8002C68.1696 32.3843 68.15 31.9574 68.0358 31.5496C67.9215 31.1417 67.7153 30.7627 67.4316 30.4392C67.148 30.1158 66.7938 29.8557 66.3939 29.6772C65.9941 29.4988 65.5582 29.4063 65.117 29.4062Z" fill="#FFCCBC"/>
<path d="M62.1562 23.125H49.0312V31.5H53.4062V26.2656H57.7812V31.5H62.1562V23.125Z" fill="#CBE6FE"/>
<path d="M64.3438 23.125L55.5938 14.75L51.2188 18.9375L46.8438 23.125H64.3438Z" fill="#000B6D"/>
<path d="M37 14.75H40.2812V31.5H37V14.75Z" fill="#54678C"/>
<path d="M16.3052 40.5752C15.5297 41.0086 14.7662 41.4661 14.0312 41.9686V57.6717H39.8503L33.6433 57.1221C24.3836 56.3014 17.1659 49.2747 16.3052 40.5752Z" fill="#FFAB91"/>
<path d="M46.8438 47.2031H29.3438V45.1094H46.8438C48.6528 45.1094 51.2188 42.6534 51.2188 40.9219L52.3125 41.9688C52.3125 44.855 49.8592 47.2031 46.8438 47.2031Z" fill="#FFAB91"/>
<path d="M43.5625 5.32812H44.6562V7.42188H43.5625V5.32812ZM46.8438 5.32812H47.9375V7.42188H46.8438V5.32812ZM43.5625 9.51562H44.6562V11.6094H43.5625V9.51562ZM46.8438 9.51562H47.9375V11.6094H46.8438V9.51562ZM43.5625 13.7031H44.6562V15.7969H43.5625V13.7031ZM46.8438 13.7031H47.9375V15.7969H46.8438V13.7031ZM33.7188 17.8906H34.8125V19.9844H33.7188V17.8906ZM37 17.8906H38.0938V19.9844H37V17.8906ZM33.7188 22.0781H34.8125V24.1719H33.7188V22.0781ZM37 22.0781H38.0938V24.1719H37V22.0781ZM33.7188 26.2656H34.8125V28.3594H33.7188V26.2656ZM37 26.2656H38.0938V28.3594H37V26.2656ZM43.5625 17.8906H44.6562V19.9844H43.5625V17.8906ZM46.8438 17.8906H47.9375V19.9844H46.8438V17.8906Z" fill="#2B67B3"/>
<path d="M59.9688 2.1875H62.1562V4.28125H59.9688V2.1875ZM62.1562 0.09375H64.3438V2.1875H62.1562V0.09375ZM64.3438 2.1875H66.5312V4.28125H64.3438V2.1875ZM62.1562 4.28125H64.3438V6.375H62.1562V4.28125ZM67.625 7.42188H69.8125V9.51562H67.625V7.42188ZM59.9688 10.5625H62.1562V12.6562H59.9688V10.5625ZM4.1875 9.51562H6.375V11.6094H4.1875V9.51562ZM6.375 7.42188H8.5625V9.51562H6.375V7.42188ZM8.5625 9.51562H10.75V11.6094H8.5625V9.51562ZM6.375 11.6094H8.5625V13.7031H6.375V11.6094ZM4.1875 17.8906H6.375V19.9844H4.1875V17.8906ZM8.5625 0.09375H10.75V2.1875H8.5625V0.09375Z" fill="#000B6D"/>
<path d="M12.9375 36.7344H6.375C6.08492 36.7344 5.80672 36.8447 5.6016 37.041C5.39648 37.2373 5.28125 37.5036 5.28125 37.7812V60.8125C5.28125 61.0901 5.39648 61.3564 5.6016 61.5528C5.80672 61.7491 6.08492 61.8594 6.375 61.8594H12.9375C13.2276 61.8594 13.5058 61.7491 13.7109 61.5528C13.916 61.3564 14.0312 61.0901 14.0312 60.8125V37.7812C14.0312 37.5036 13.916 37.2373 13.7109 37.041C13.5058 36.8447 13.2276 36.7344 12.9375 36.7344Z" fill="#000B6D"/>
<path d="M9.65625 44.0625C9.36617 44.0625 9.08797 43.9522 8.88285 43.7559C8.67773 43.5596 8.5625 43.2933 8.5625 43.0156V41.9688C8.5625 41.6911 8.67773 41.4248 8.88285 41.2285C9.08797 41.0322 9.36617 40.9219 9.65625 40.9219C9.94633 40.9219 10.2245 41.0322 10.4296 41.2285C10.6348 41.4248 10.75 41.6911 10.75 41.9688V43.0156C10.75 43.2933 10.6348 43.5596 10.4296 43.7559C10.2245 43.9522 9.94633 44.0625 9.65625 44.0625Z" fill="#FEFEFE"/>
<path d="M22.6525 26L19 21.3781V20.7619H19.4251C20.1079 20.7619 20.6811 20.715 21.145 20.6219C21.6218 20.5285 21.9955 20.3743 22.2658 20.1596C22.5366 19.945 22.6976 19.6508 22.7489 19.2771H19V18.381H22.7297C22.6396 18.0354 22.459 17.7554 22.1887 17.5404C21.9179 17.3164 21.5508 17.1531 21.087 17.0503C20.636 16.9475 20.0821 16.8961 19.4251 16.8961H19V16H27V16.8961H23.3479C23.6445 17.0736 23.8889 17.2837 24.0825 17.5265C24.2756 17.7693 24.3979 18.0541 24.4496 18.381H27V19.2771H24.488C24.3979 19.9589 24.037 20.491 23.4059 20.8738C22.7877 21.2475 21.963 21.4854 20.9326 21.5882L24.6236 26H22.6525Z" fill="white"/>
</g>
<defs>
<filter id="filter0_d_74_326" x="0.1875" y="0.09375" width="73.625" height="69.7656" filterUnits="userSpaceOnUse" color-interpolation-filters="sRGB">
<feFlood flood-opacity="0" result="BackgroundImageFix"/>
<feColorMatrix in="SourceAlpha" type="matrix" values="0 0 0 0 0 0 0 0 0 0 0 0 0 0 0 0 0 0 127 0" result="hardAlpha"/>
<feOffset dy="4"/>
<feGaussianBlur stdDeviation="2"/>
<feComposite in2="hardAlpha" operator="out"/>
<feColorMatrix type="matrix" values="0 0 0 0 0 0 0 0 0 0 0 0 0 0 0 0 0 0 0.25 0"/>
<feBlend mode="normal" in2="BackgroundImageFix" result="effect1_dropShadow_74_326"/>
<feBlend mode="normal" in="SourceGraphic" in2="effect1_dropShadow_74_326" result="shape"/>
</filter>
</defs>
</svg>
