<svg width="78" height="72" viewBox="0 0 78 72" fill="none" xmlns="http://www.w3.org/2000/svg">
<g filter="url(#filter0_d_74_304)">
<path d="M64.3977 60.7714H9.92161C7.3056 60.7714 5.18457 58.5945 5.18457 55.9095V26.7808H69.1346V55.9095C69.1346 58.5945 67.0135 60.7714 64.3977 60.7714Z" fill="#DBE1FF"/>
<path d="M5.18457 36.4529C6.17699 37.2246 7.39915 37.7 8.73736 37.7H65.5818C66.92 37.7 68.1423 37.2246 69.1346 36.4529V26.7817H5.18457V36.4529Z" fill="#205DA0"/>
<path d="M37.1593 12.1543H8.73704C6.12103 12.1543 4 14.3311 4 17.016V31.6217C4 34.3067 6.12103 36.4833 8.73704 36.4833H37.1593H65.5815C68.1977 36.4833 70.3185 34.3067 70.3185 31.6217V17.016C70.3185 14.3311 68.1977 12.1543 65.5815 12.1543H37.1593Z" fill="#7D8AFF"/>
<path d="M20.5798 43.7552H13.4743C12.8206 43.7552 12.29 43.2107 12.29 42.5399V35.2474C12.29 34.5763 12.8206 34.0317 13.4743 34.0317H20.5798C21.2335 34.0317 21.7641 34.5763 21.7641 35.2474V42.5399C21.7641 43.2107 21.2335 43.7552 20.5798 43.7552Z" fill="#000B6D"/>
<path d="M19.3952 36.4419H14.6582V41.3035H19.3952V36.4419Z" fill="#DBE1FF"/>
<path d="M19.3952 46.1653L17.0267 47.3807L14.6582 46.1653V43.7344H19.3952V46.1653Z" fill="#4C5C75"/>
<path d="M28.8692 9.72314H21.7637V12.154H28.8692V9.72314Z" fill="#1D2943"/>
<path d="M27.6853 9.72339H22.9482V4.8617C22.9482 2.18047 25.0728 0 27.6853 0H37.1594V4.8617H27.6853V9.72339Z" fill="#54678C"/>
<path d="M52.5548 9.72314H45.4492V12.154H52.5548V9.72314Z" fill="#54678C"/>
<path d="M51.3703 9.72339H46.6331V4.8617H37.1592V0H46.6331C49.2458 0 51.3703 2.18047 51.3703 4.8617V9.72339Z" fill="#1D2943"/>
<path d="M62.0284 32.8164H28.8691V52.2631H62.0284V32.8164Z" fill="#3D4466"/>
<path d="M45.4497 48.6166C48.72 48.6166 51.3708 45.8957 51.3708 42.5396C51.3708 39.1833 48.72 36.4624 45.4497 36.4624C42.1794 36.4624 39.5283 39.1833 39.5283 42.5396C39.5283 45.8957 42.1794 48.6166 45.4497 48.6166Z" fill="#F5F5F5"/>
<path d="M57.4943 35.2474C57.8519 36.2817 58.6512 37.1032 59.6602 37.4702V47.6105C58.6524 47.9775 57.8519 48.7982 57.4943 49.8337H33.404C33.0464 48.7993 32.2468 47.9775 31.2379 47.6105V37.4702C32.2457 37.1032 33.0464 36.2828 33.404 35.2474H57.4943ZM58.476 34.0317H32.4223C32.4223 35.3689 31.3563 36.4627 30.0537 36.4627V48.6169C31.3563 48.6169 32.4223 49.7109 32.4223 51.0478H58.476C58.476 49.7109 59.5417 48.6169 60.8443 48.6169V36.4627C59.5417 36.4627 58.476 35.3689 58.476 34.0317Z" fill="#205DA0"/>
<path d="M64.3975 62.007L66.7661 61.9961V46.2065H64.3975V62.007Z" fill="#7D8AFF"/>
<path d="M65.582 61.9961L66.7662 62.007V46.2065H65.582V61.9961Z" fill="#205DA0"/>
<path d="M73.8712 44.9912H66.7656V63.2226H73.8712V44.9912Z" fill="#000B6D"/>
<path d="M69.5687 47.3552C68.4485 48.8634 70.1113 50.57 71.5808 49.4203C72.7013 47.9118 71.0385 46.2067 69.5687 47.3552Z" fill="white"/>
<path d="M62.1745 47.4222C60.8432 45.244 58.3622 43.7759 55.5155 43.7759C52.6685 43.7759 50.1875 45.244 48.8562 47.4222H40.7121C39.4035 47.4222 38.3435 48.51 38.3435 49.8531C38.3435 51.1962 39.4035 52.2838 40.7121 52.2838H38.3435L27.1666 44.9841C26.1221 44.3022 24.7424 44.5597 23.9999 45.5761L22.4899 47.642C22.0908 48.188 22.2081 48.9633 22.7493 49.3607L37.7255 60.3398C38.127 60.6339 38.6088 60.7931 39.1015 60.7931H64.3972V52.2849V47.4233H62.1745V47.4222Z" fill="#FFCCBC"/>
<path d="M38.6719 51.0684C39.0817 51.7916 39.8371 52.2837 40.7124 52.2837H49.0021V51.0684H38.6719Z" fill="#FFAB91"/>
<path d="M45.1867 47.1382L42.4473 43.4406V42.9477H42.7661C43.2782 42.9477 43.7081 42.9102 44.056 42.8357C44.4136 42.761 44.6939 42.6376 44.8966 42.4659C45.0997 42.2942 45.2205 42.0588 45.2589 41.7599H42.4473V41.0429H45.2445C45.177 40.7665 45.0415 40.5425 44.8388 40.3705C44.6357 40.1913 44.3604 40.0607 44.0125 39.9785C43.6743 39.8962 43.2588 39.8551 42.7661 39.8551H42.4473V39.1382H48.4473V39.8551H45.7082C45.9307 39.9971 46.114 40.1652 46.2592 40.3594C46.404 40.5536 46.4957 40.7815 46.5345 41.0429H48.4473V41.7599H46.5632C46.4957 42.3053 46.225 42.731 45.7517 43.0372C45.288 43.3362 44.6695 43.5265 43.8968 43.6087L46.6649 47.1382H45.1867Z" fill="#000B6D"/>
</g>
<defs>
<filter id="filter0_d_74_304" x="0" y="0" width="77.8711" height="71.2227" filterUnits="userSpaceOnUse" color-interpolation-filters="sRGB">
<feFlood flood-opacity="0" result="BackgroundImageFix"/>
<feColorMatrix in="SourceAlpha" type="matrix" values="0 0 0 0 0 0 0 0 0 0 0 0 0 0 0 0 0 0 127 0" result="hardAlpha"/>
<feOffset dy="4"/>
<feGaussianBlur stdDeviation="2"/>
<feComposite in2="hardAlpha" operator="out"/>
<feColorMatrix type="matrix" values="0 0 0 0 0 0 0 0 0 0 0 0 0 0 0 0 0 0 0.25 0"/>
<feBlend mode="normal" in2="BackgroundImageFix" result="effect1_dropShadow_74_304"/>
<feBlend mode="normal" in="SourceGraphic" in2="effect1_dropShadow_74_304" result="shape"/>
</filter>
</defs>
</svg>
