<svg width="76" height="85" viewBox="0 0 76 85" fill="none" xmlns="http://www.w3.org/2000/svg">
<g filter="url(#filter0_d_74_250)">
<path d="M19.0242 17.2627C19.0478 17.2627 19.0708 17.2657 19.0944 17.266L18.3634 24.4553C16.4957 24.1665 15.0713 22.6807 15.0713 20.8862C15.071 18.8851 16.8409 17.2627 19.0242 17.2627Z" fill="white"/>
<path d="M57.2725 74.1625L55.7064 48.3853C55.5879 46.4386 54.1028 44.7888 52.0402 44.313L45.3111 42.7604C44.1436 42.4912 42.9886 42.1784 41.849 41.8228L38.8723 40.4775L38.2734 40.2068C37.3235 39.7775 36.7221 38.8908 36.7221 37.9199V35.6689L36.7122 35.6776C35.3239 36.9168 33.4628 37.6104 31.5249 37.6104C31.5478 37.6104 30.8132 37.6104 30.7741 37.6104C28.8362 37.6104 26.9751 36.9168 25.5868 35.6776L25.3742 35.4878V37.9199C25.3742 38.8908 24.7727 39.7775 23.8228 40.2068L23.3818 40.4062L20.4195 41.7449C19.1651 42.1522 17.8906 42.505 16.6004 42.8028L10.056 44.3127C7.9934 44.7886 6.5083 46.4386 6.38985 48.3853L4.82371 74.1628C4.75513 75.2896 5.7336 76.2376 6.9644 76.2376H55.1315C56.3626 76.2376 57.3411 75.2896 57.2725 74.1625Z" fill="#CBE6FE"/>
<path d="M43.0714 17.2627C43.0671 17.2627 43.0629 17.263 43.0586 17.2633L43.7418 24.4535C45.6048 24.1611 47.0246 22.6777 47.0246 20.8865C47.0246 18.8851 45.2547 17.2627 43.0714 17.2627Z" fill="white"/>
<path d="M43.8763 25.8688L43.0776 17.4604C43.0379 17.0439 42.6071 16.7545 42.1618 16.8444C33.579 18.5769 27.1704 14.8268 24.8404 13.1602C24.448 12.8795 23.8603 13.0314 23.7133 13.4673C23.0649 15.389 20.7237 16.248 19.7 16.5379C19.405 16.6216 19.1973 16.8628 19.173 17.1452L18.4226 25.8688C18.2214 27.8476 19.007 29.8036 20.5603 31.1902L25.5869 35.6779C26.9752 36.9171 28.8363 37.6107 30.7742 37.6107C30.8133 37.6107 31.5483 37.6107 31.525 37.6107C33.4629 37.6107 35.324 36.9171 36.7123 35.6779L41.7389 31.1902C43.2915 29.8036 44.0774 27.8476 43.8763 25.8688Z" fill="white"/>
<path d="M45.949 9.89867C44.8202 6.62377 42.1384 3.99764 38.7072 2.61856C23.8438 -3.35646 19.9083 6.95041 19.9083 6.95041C15.5442 8.63479 14.6097 14.5394 15.853 18.7293C16.5732 17.8408 17.7236 17.2624 19.0243 17.2624C19.0479 17.2624 19.0709 17.2654 19.0945 17.2657L19.1628 17.2624L19.1729 17.1451C19.1972 16.863 19.4046 16.6214 19.6999 16.5378C20.7237 16.2479 23.0649 15.3885 23.7132 13.4671C23.8602 13.0313 24.4482 12.8794 24.8404 13.16C27.1704 14.8267 33.579 18.5768 42.1617 16.8443C42.5325 16.7694 42.8931 16.9574 43.0264 17.2624L43.0588 17.263C43.0631 17.2627 43.0674 17.2624 43.0716 17.2624C44.6762 17.2624 46.0543 18.1401 46.6738 19.3991C47.2684 15.4445 46.7683 12.2763 45.949 9.89867Z" fill="#1D2943"/>
<path d="M42.8877 42.1251C42.5409 42.0255 42.193 41.9299 41.8492 41.8228L38.8724 40.4774L38.5532 40.333L32.1426 47.3472L37.0093 50.2083L42.8877 42.1251Z" fill="#7D8AFF"/>
<path d="M19.2871 42.0946L25.1881 50.2085L30.0549 47.3475L23.6151 40.3008L23.3821 40.4061L20.4198 41.7448C20.0441 41.8669 19.6661 41.9825 19.2871 42.0946Z" fill="#7D8AFF"/>
<path d="M32.142 47.3476L32.163 47.3247H30.0335L30.0545 47.3476L29.0117 47.9606V56.9359C29.0117 57.3281 29.3585 57.646 29.7864 57.646H32.3094C32.7373 57.646 33.0841 57.3281 33.0841 56.9359V47.9016L32.142 47.3476Z" fill="#7D8AFF"/>
<path d="M38.5525 40.3331L38.2729 40.2068C37.323 39.7775 36.7215 38.8908 36.7215 37.9199V35.6689L36.7117 35.6776C35.3234 36.9168 33.4623 37.6104 31.5244 37.6104C31.5473 37.6104 30.8127 37.6104 30.7736 37.6104C28.8357 37.6104 26.9746 36.9168 25.5863 35.6776L25.3737 35.4878V37.9199C25.3737 38.8908 24.7722 39.7775 23.8223 40.2068L23.6143 40.3009L30.0481 47.341L30.0334 47.3247H32.1629L38.5525 40.3331Z" fill="white"/>
<path d="M18.3634 25.2072C18.3178 25.2072 18.2725 25.2036 18.2269 25.1967C15.9231 24.8406 14.251 23.0278 14.251 20.8862C14.251 18.4736 16.392 16.5107 19.0242 16.5107C19.0567 16.5107 19.0885 16.5122 19.1207 16.5144C19.3484 16.5186 19.5594 16.6094 19.711 16.7652C19.8629 16.921 19.9325 17.1276 19.9111 17.3355L19.1801 24.5248C19.1591 24.7329 19.0442 24.9236 18.8631 25.0511C18.7191 25.1531 18.5429 25.2072 18.3634 25.2072ZM18.1836 18.1196C16.8632 18.4571 15.8916 19.5697 15.8916 20.8862C15.8916 22.0075 16.5902 22.9911 17.6405 23.4615L18.1836 18.1196Z" fill="#000B6D"/>
<path d="M47.7383 76.5669C47.2851 76.5669 46.918 76.2303 46.918 75.8149V59.1191C46.918 58.7038 47.2851 58.3672 47.7383 58.3672C48.1914 58.3672 48.5586 58.7038 48.5586 59.1191V75.8149C48.5586 76.2303 48.1914 76.5669 47.7383 76.5669Z" fill="#205DA0"/>
<path d="M14.3574 76.5669C13.9043 76.5669 13.5371 76.2303 13.5371 75.8149V59.1191C13.5371 58.7038 13.9043 58.3672 14.3574 58.3672C14.8106 58.3672 15.1777 58.7038 15.1777 59.1191V75.8149C15.1777 76.2303 14.8106 76.5669 14.3574 76.5669Z" fill="#7D8AFF"/>
<path d="M31.472 32.0586C30.0138 32.0586 28.6551 31.3966 27.838 30.2876C27.5844 29.9435 27.6828 29.4761 28.0585 29.2436C28.4339 29.0114 28.9438 29.1016 29.1974 29.4457C29.7093 30.1402 30.5595 30.5547 31.4723 30.5547C32.3845 30.5547 33.235 30.1402 33.7469 29.446C34.0005 29.1016 34.5108 29.0114 34.8858 29.2439C35.2615 29.4764 35.36 29.9438 35.1063 30.2879C34.2886 31.3969 32.9299 32.0586 31.472 32.0586Z" fill="#231F20"/>
<path d="M37.5844 21.625C37.4545 21.625 37.3226 21.5967 37.1998 21.5368C36.9921 21.4358 36.5167 21.3335 35.9215 21.3335C35.3262 21.3335 34.8505 21.4355 34.6431 21.5368C34.2428 21.7317 33.7463 21.5925 33.5337 21.2258C33.3211 20.8592 33.4727 20.4038 33.8727 20.2089C34.3675 19.9679 35.1139 19.8296 35.9215 19.8296C36.7287 19.8296 37.4751 19.9676 37.9699 20.2089C38.3699 20.4038 38.5219 20.8592 38.3089 21.2258C38.1619 21.48 37.8777 21.625 37.5844 21.625Z" fill="#231F20"/>
<path d="M25.3172 21.6247C25.0232 21.6247 24.7393 21.4797 24.592 21.2252C24.3797 20.8586 24.5316 20.4032 24.9316 20.2086C25.4267 19.9676 26.1732 19.8296 26.9801 19.8296C27.7873 19.8296 28.5338 19.9676 29.0286 20.2089C29.4286 20.4038 29.5805 20.8592 29.3675 21.2258C29.1552 21.5928 28.6578 21.7314 28.2581 21.5368C28.0504 21.4358 27.575 21.3335 26.9798 21.3335C26.3439 21.3335 25.8933 21.443 25.7011 21.5368C25.5787 21.5964 25.4471 21.6247 25.3172 21.6247Z" fill="#231F20"/>
<path d="M27.1133 24.5729C26.5696 24.5729 26.1289 24.1689 26.1289 23.6705V23.5039C26.1289 23.0055 26.5696 22.6016 27.1133 22.6016C27.657 22.6016 28.0977 23.0055 28.0977 23.5039V23.6705C28.0977 24.1689 27.657 24.5729 27.1133 24.5729Z" fill="#231F20"/>
<path d="M35.8311 24.7008C35.2874 24.7008 34.8467 24.2969 34.8467 23.7985V23.6318C34.8467 23.1334 35.2874 22.7295 35.8311 22.7295C36.3748 22.7295 36.8154 23.1334 36.8154 23.6318V23.7985C36.8154 24.2969 36.3748 24.7008 35.8311 24.7008Z" fill="#231F20"/>
<path d="M31.472 32.0586C30.0138 32.0586 28.6551 31.3966 27.838 30.2876C27.5844 29.9435 27.6828 29.4761 28.0585 29.2436C28.4339 29.0114 28.9438 29.1016 29.1974 29.4457C29.7093 30.1402 30.5595 30.5547 31.4723 30.5547C32.3845 30.5547 33.235 30.1402 33.7469 29.446C34.0005 29.1016 34.5108 29.0114 34.8858 29.2439C35.2615 29.4764 35.36 29.9438 35.1063 30.2879C34.2886 31.3969 32.9299 32.0586 31.472 32.0586Z" fill="#000B6D"/>
<path d="M37.5844 21.625C37.4545 21.625 37.3226 21.5967 37.1998 21.5368C36.9921 21.4358 36.5167 21.3335 35.9215 21.3335C35.3262 21.3335 34.8505 21.4355 34.6431 21.5368C34.2428 21.7317 33.7463 21.5925 33.5337 21.2258C33.3211 20.8592 33.4727 20.4038 33.8727 20.2089C34.3675 19.9679 35.1139 19.8296 35.9215 19.8296C36.7287 19.8296 37.4751 19.9676 37.9699 20.2089C38.3699 20.4038 38.5219 20.8592 38.3089 21.2258C38.1619 21.48 37.8777 21.625 37.5844 21.625Z" fill="#000B6D"/>
<path d="M25.3172 21.6247C25.0232 21.6247 24.7393 21.4797 24.592 21.2252C24.3797 20.8586 24.5316 20.4032 24.9316 20.2086C25.4267 19.9676 26.1732 19.8296 26.9801 19.8296C27.7873 19.8296 28.5338 19.9676 29.0286 20.2089C29.4286 20.4038 29.5805 20.8592 29.3675 21.2258C29.1552 21.5928 28.6578 21.7314 28.2581 21.5368C28.0504 21.4358 27.575 21.3335 26.9798 21.3335C26.3439 21.3335 25.8933 21.443 25.7011 21.5368C25.5787 21.5964 25.4471 21.6247 25.3172 21.6247Z" fill="#000B6D"/>
<path d="M27.1133 24.5729C26.5696 24.5729 26.1289 24.1689 26.1289 23.6705V23.5039C26.1289 23.0055 26.5696 22.6016 27.1133 22.6016C27.657 22.6016 28.0977 23.0055 28.0977 23.5039V23.6705C28.0977 24.1689 27.657 24.5729 27.1133 24.5729Z" fill="#000B6D"/>
<path d="M35.8311 24.7008C35.2874 24.7008 34.8467 24.2969 34.8467 23.7985V23.6318C34.8467 23.1334 35.2874 22.7295 35.8311 22.7295C36.3748 22.7295 36.8154 23.1334 36.8154 23.6318V23.7985C36.8154 24.2969 36.3748 24.7008 35.8311 24.7008Z" fill="#000B6D"/>
<path d="M55.131 76.9898H6.96424C6.15279 76.9898 5.36792 76.68 4.81043 76.1395C4.25327 75.5993 3.95927 74.8636 4.00456 74.1213L5.5707 48.3437C5.70982 46.0563 7.43149 44.1433 9.85568 43.5839L16.3998 42.0739C17.6437 41.787 18.8883 41.4429 20.1001 41.0513L23.4594 39.5326C24.1344 39.2277 24.5534 38.6098 24.5534 37.9202V35.488C24.5534 35.1858 24.7509 34.9126 25.0548 34.7953C25.3586 34.678 25.7097 34.7388 25.9459 34.9493L26.1586 35.1391C27.4005 36.2481 29.0395 36.8587 30.7733 36.8587H31.5247C33.2579 36.8587 34.8969 36.2481 36.1388 35.1391C36.3754 34.9283 36.7308 34.8633 37.0349 34.9806C37.3388 35.0982 37.5412 35.3668 37.5412 35.6691V37.9199C37.5412 38.6095 37.9602 39.2273 38.6349 39.5323L42.1625 41.1265C43.2618 41.4679 44.3876 41.772 45.5101 42.0309L52.2393 43.5836C54.6634 44.143 56.3851 46.0557 56.5242 48.3434L58.0904 74.121C58.1357 74.8636 57.8417 75.5993 57.2842 76.1395C56.7277 76.68 55.9425 76.9898 55.131 76.9898ZM26.194 37.0933V37.9202C26.194 39.1867 25.4239 40.3216 24.1849 40.8813L20.7819 42.4195C20.753 42.4325 20.7232 42.4442 20.693 42.4538C19.4189 42.8674 18.109 43.2301 16.8004 43.5321L10.2563 45.0421C8.53235 45.44 7.30779 46.8001 7.20902 48.427L5.64288 74.2046C5.62254 74.5412 5.75018 74.8612 6.00284 75.106C6.25582 75.3509 6.5974 75.4856 6.9649 75.4856H55.132C55.4995 75.4856 55.8411 75.3509 56.0941 75.106C56.3467 74.8612 56.4744 74.5412 56.454 74.2046L54.8879 48.427C54.7891 46.8001 53.5646 45.4397 51.8406 45.0421L45.1114 43.4894C43.9288 43.2166 42.7427 42.8954 41.5857 42.5347C41.5519 42.5242 41.5191 42.5119 41.4869 42.4971L37.9114 40.881C36.6724 40.321 35.9026 39.1864 35.9026 37.9199V37.2133C34.6009 37.962 33.0945 38.3623 31.5257 38.3623H30.775C29.1222 38.3626 27.54 37.919 26.194 37.0933Z" fill="#000B6D"/>
<path d="M43.7413 25.2051C43.5612 25.2051 43.3846 25.1507 43.2402 25.0484C43.0585 24.92 42.9443 24.7278 42.9243 24.5184L42.2414 17.3286C42.2217 17.1234 42.2949 16.9204 42.4432 16.7658C42.5915 16.6115 42.8029 16.5198 43.027 16.5119C43.0371 16.5116 43.0608 16.5107 43.0713 16.5107C45.7031 16.5107 47.8445 18.4736 47.8445 20.8862C47.8445 23.0224 46.177 24.834 43.8798 25.1946C43.8335 25.2015 43.7872 25.2051 43.7413 25.2051ZM43.9644 18.1335L44.4697 23.4537C45.5115 22.9805 46.2035 22.0003 46.2035 20.8859C46.2035 19.5871 45.2579 18.4869 43.9644 18.1335Z" fill="#000B6D"/>
<path d="M31.5244 38.3627H30.7736C28.6097 38.3627 26.5641 37.6005 25.0141 36.2166L19.9875 31.7292C18.2481 30.1766 17.3802 28.0152 17.6053 25.7996L18.3548 17.0866C18.406 16.4923 18.8387 15.9951 19.4569 15.82C20.3225 15.5752 22.393 14.8335 22.9288 13.2453C23.0755 12.8104 23.4479 12.469 23.9247 12.3319C24.4106 12.192 24.9415 12.2798 25.3442 12.5677C27.6069 14.1862 33.7569 17.7712 41.9844 16.1106C42.4283 16.0206 42.8913 16.1109 43.2575 16.3572C43.6227 16.6033 43.8547 16.9819 43.8937 17.3961L44.6927 25.802C44.9171 28.017 44.0489 30.1772 42.3102 31.7295L37.2836 36.2172C35.7339 37.6008 33.6884 38.3627 31.5244 38.3627ZM19.9872 17.2436L19.24 25.9284C19.0599 27.7 19.75 29.4177 21.1323 30.6518L26.1589 35.1395C27.4008 36.2485 29.0398 36.8591 30.7736 36.8591H31.525C33.2582 36.8591 34.8972 36.2485 36.1391 35.1395L41.1657 30.6518C42.5481 29.4177 43.2378 27.7003 43.059 25.9392C43.059 25.9377 43.0586 25.9362 43.0586 25.9347L42.2662 17.5937C33.5253 19.3295 26.969 15.6104 24.4454 13.8319C23.629 15.9734 21.1022 16.9221 19.9872 17.2436Z" fill="#000B6D"/>
<path d="M46.6728 20.1516C46.3539 20.1516 46.0592 19.9811 45.9254 19.7089C45.4214 18.6844 44.3087 18.0209 43.0874 18.0152C43.0707 18.0158 43.0543 18.0158 43.0385 18.0155C42.7294 18.0086 42.4233 17.8426 42.2875 17.5893C33.535 19.3371 26.9716 15.6117 24.446 13.8316C23.6293 15.9735 21.103 16.9219 19.9874 17.2437L19.9805 17.321C19.9487 17.6979 19.6166 17.9944 19.2048 18.0137L19.1362 18.017C19.1172 18.0179 19.0978 18.0182 19.0772 18.0179C19.0637 18.0176 19.0178 18.0155 19.004 18.0146C18.0265 18.0149 17.1104 18.439 16.5109 19.1783C16.3235 19.4096 16.0089 19.5224 15.6998 19.4686C15.3913 19.415 15.1433 19.2048 15.0609 18.9272C14.3725 16.6069 14.344 13.9772 14.9835 11.7123C15.7086 9.14275 17.1868 7.31009 19.2694 6.39C19.7275 5.41637 21.3924 2.44736 25.2292 0.916683C28.9885 -0.582411 33.6335 -0.241626 39.0361 1.93002C42.7439 3.42039 45.5484 6.24232 46.7306 9.67213C47.7625 12.6658 48.0162 15.9729 47.4856 19.5017C47.4357 19.8337 47.1519 20.0954 46.7903 20.1432C46.7509 20.1492 46.7116 20.1516 46.6728 20.1516ZM43.469 16.5263C44.4291 16.6006 45.3295 16.9399 46.0615 17.4804C46.246 14.8564 45.9464 12.3894 45.1661 10.1257C44.1263 7.10887 41.6515 4.62382 38.3772 3.3076C33.41 1.31101 29.2071 0.970222 25.8838 2.29607C22.0011 3.84479 20.6948 7.16602 20.682 7.1994C20.6056 7.40003 20.4399 7.56154 20.2259 7.64426C17.5248 8.68707 15.4432 12.5599 16.3367 17.2696C16.9827 16.8629 17.7302 16.6096 18.5249 16.5348C18.7139 16.1976 19.044 15.9371 19.4568 15.8204C20.3224 15.5756 22.3929 14.8338 22.9287 13.2457C23.0754 12.8108 23.4478 12.4694 23.9246 12.3322C24.4105 12.1924 24.9415 12.2802 25.3441 12.568C27.6068 14.1866 33.7569 17.7716 41.9843 16.111C42.5408 15.9979 43.0989 16.1669 43.469 16.5263Z" fill="#000B6D"/>
<path d="M37.0075 50.9604C36.8556 50.9604 36.7024 50.9219 36.5652 50.8413L31.6988 47.9803C31.5006 47.8636 31.3661 47.6744 31.3306 47.4608C31.2952 47.2473 31.3615 47.0301 31.5131 46.8644L37.9233 39.8501C38.1661 39.5843 38.576 39.5055 38.9146 39.6586L42.162 41.1264C42.3993 41.1995 42.6381 41.2671 42.8774 41.3351L43.1313 41.4076C43.3781 41.4783 43.574 41.6512 43.6599 41.8747C43.7459 42.0979 43.7121 42.3451 43.569 42.5424L37.6904 50.6256C37.5329 50.8425 37.273 50.9604 37.0075 50.9604ZM33.3689 47.1757L36.7726 49.1768L41.5996 42.5397C41.5944 42.5382 41.5895 42.5364 41.5842 42.5349C41.5501 42.5244 41.5176 42.5118 41.4854 42.4973L38.7669 41.2686L33.3689 47.1757Z" fill="#000B6D"/>
<path d="M25.1888 50.9602C24.9233 50.9602 24.6634 50.8423 24.5056 50.6251L18.6046 42.5112C18.4618 42.3151 18.428 42.0694 18.5124 41.8468C18.597 41.6242 18.7906 41.451 19.0351 41.3785C19.3918 41.2729 19.7474 41.1646 20.1008 41.0503L23.2525 39.6258C23.5915 39.4727 24.001 39.5515 24.2438 39.8174L30.6839 46.8638C30.8355 47.0296 30.9018 47.2467 30.8663 47.4603C30.8309 47.6738 30.6963 47.863 30.4982 47.9797L25.6314 50.8408C25.4936 50.9217 25.3404 50.9602 25.1888 50.9602ZM20.5645 42.4953L25.4237 49.1762L28.8277 47.1751L23.3998 41.2359L20.7823 42.4189C20.7535 42.4318 20.7236 42.4436 20.6934 42.4532C20.6504 42.4676 20.6075 42.4818 20.5645 42.4953Z" fill="#000B6D"/>
<path d="M32.309 58.3977H29.7861C28.9067 58.3977 28.1914 57.7417 28.1914 56.9356V47.9606C28.1914 47.7043 28.3338 47.4658 28.5688 47.3277L29.4583 46.8047C29.6066 46.6609 29.8104 46.5728 30.0332 46.5728H32.1627C32.4029 46.5728 32.6267 46.6687 32.7802 46.8296L33.5264 47.2685C33.7617 47.4065 33.9037 47.645 33.9037 47.9013V56.9356C33.9037 57.7417 33.1881 58.3977 32.309 58.3977ZM29.8317 56.8938H32.2631V48.3122L31.8621 48.0764H30.3334L29.8317 48.3714V56.8938Z" fill="#000B6D"/>
<path d="M32.1422 48.0994C31.9572 48.0994 31.7708 48.0422 31.6172 47.9249C31.4223 47.7761 31.3223 47.5622 31.3223 47.3468C31.3223 47.1772 31.3846 47.0067 31.5122 46.8659C31.8023 46.5465 32.3303 46.4923 32.6781 46.7582C32.8759 46.9089 32.9796 47.1231 32.9796 47.3387C32.9796 47.5029 32.9189 47.6678 32.7939 47.8058L32.7732 47.8287C32.6105 48.0074 32.3772 48.0994 32.1422 48.0994Z" fill="#231F20"/>
<path d="M30.0484 48.0926C29.8157 48.0926 29.5844 48.0023 29.422 47.8267C29.421 47.8258 29.4203 47.8246 29.4193 47.8237L22.9855 40.7839C22.8237 40.607 22.7597 40.3718 22.8116 40.1462C22.8634 39.9207 23.0252 39.7291 23.2509 39.6268L23.4589 39.5326C24.1346 39.2277 24.5536 38.6098 24.5536 37.9202V35.488C24.5536 35.1858 24.7511 34.9126 25.0549 34.7953C25.3588 34.678 25.7099 34.7388 25.9461 34.9493L26.1588 35.1391C27.4007 36.2481 29.0397 36.8587 30.7735 36.8587H31.5249C33.2581 36.8587 34.8971 36.2481 36.139 35.1391C36.3756 34.9283 36.7309 34.8633 37.0351 34.9806C37.339 35.0982 37.5414 35.3668 37.5414 35.6691V37.9199C37.5414 38.6095 37.9604 39.2274 38.6351 39.5323L38.9146 39.6587C39.1404 39.7606 39.3028 39.9522 39.3546 40.1781C39.4065 40.404 39.3425 40.6392 39.1807 40.8161L32.7911 47.8074C32.6353 47.978 32.4049 48.0766 32.1625 48.0766H30.2187C30.1625 48.0872 30.1054 48.0926 30.0484 48.0926ZM30.4159 46.5724H31.7795L37.2989 40.533C36.4228 39.9161 35.9008 38.9627 35.9008 37.9199V37.2133C34.5991 37.962 33.0927 38.3623 31.5239 38.3623H30.7732C29.1217 38.3623 27.5395 37.9184 26.1935 37.093V37.9199C26.1935 38.9383 25.6954 39.8716 24.8561 40.4894L30.4159 46.5724Z" fill="#000B6D"/>
<path d="M50.4172 61.5962H25.5713V68.1036H50.4172V61.5962Z" fill="#E3E7F0"/>
<path d="M50.4177 69.7302H25.5717C24.5066 69.7302 23.7969 69.0796 23.7969 68.1036V61.5962C23.7969 60.6201 24.5066 59.9692 25.5717 59.9692H50.4177C51.4824 59.9692 52.1925 60.6201 52.1925 61.5962V68.1036C52.1925 69.0796 51.4824 69.7302 50.4177 69.7302ZM27.3462 66.4766H48.6432V63.2231H27.3462V66.4766Z" fill="#1D2943"/>
<path d="M52.192 68.1035H27.3457V74.6106H52.192V68.1035Z" fill="#F2FBFF"/>
<path d="M52.1921 76.2375H27.3458C26.281 76.2375 25.5713 75.5869 25.5713 74.6106V68.1035C25.5713 67.1272 26.281 66.4766 27.3458 66.4766H52.1921C53.2568 66.4766 53.9669 67.1272 53.9669 68.1035V74.6106C53.9669 75.5869 53.2568 76.2375 52.1921 76.2375ZM29.1206 72.984H50.4172V69.7301H29.1206V72.984Z" fill="#1D2943"/>
<path d="M34.4448 69.7305H30.8955V72.9843H34.4448V69.7305Z" fill="#205DA0"/>
<path d="M37.9942 69.7305H36.2197V72.9843H37.9942V69.7305Z" fill="#205DA0"/>
<path d="M32.6704 63.2231H29.1211V66.4767H32.6704V63.2231Z" fill="#205DA0"/>
<path d="M36.2201 63.2231H34.4453V66.4767H36.2201V63.2231Z" fill="#205DA0"/>
<path d="M50.4175 69.7305H46.8682V72.9843H50.4175V69.7305Z" fill="#205DA0"/>
<path d="M48.6424 63.2231H45.0928V66.4767H48.6424V63.2231Z" fill="white"/>
<path d="M53.9674 55.0889H29.1211V61.5963H53.9674V55.0889Z" fill="#F2FBFF"/>
<path d="M53.9665 63.2232H29.1205C28.0554 63.2232 27.3457 62.5723 27.3457 61.5962V55.0888C27.3457 54.1128 28.0554 53.4619 29.1205 53.4619H53.9665C55.0316 53.4619 55.7413 54.1128 55.7413 55.0888V61.5962C55.7413 62.5723 55.0316 63.2232 53.9665 63.2232ZM30.895 59.9693H52.192V56.7158H30.895V59.9693Z" fill="#1D2943"/>
<path d="M36.2202 56.7158H32.6709V59.9694H36.2202V56.7158Z" fill="#205DA0"/>
<path d="M39.769 56.7158H37.9941V59.9694H39.769V56.7158Z" fill="#205DA0"/>
<path d="M52.1919 56.7158H48.6426V59.9694H52.1919V56.7158Z" fill="white"/>
<path d="M57.5159 74.6109C64.377 74.6109 69.9391 69.5124 69.9391 63.2233C69.9391 56.934 64.377 51.8354 57.5159 51.8354C50.6548 51.8354 45.0928 56.934 45.0928 63.2233C45.0928 69.5124 50.6548 74.6109 57.5159 74.6109Z" fill="#DBE1FF"/>
<path d="M57.5163 76.2378C49.7076 76.2378 43.3184 70.3813 43.3184 63.2233C43.3184 56.065 49.7076 50.2085 57.5163 50.2085C65.3251 50.2085 71.7143 56.065 71.7143 63.2233C71.7143 70.3813 65.3251 76.2378 57.5163 76.2378ZM57.5163 53.462C51.6596 53.462 46.868 57.8547 46.868 63.2233C46.868 68.5916 51.6596 72.9843 57.5163 72.9843C63.373 72.9843 68.1646 68.5916 68.1646 63.2233C68.1646 57.8547 63.373 53.462 57.5163 53.462Z" fill="#7D8AFF"/>
<path d="M47.9331 62.4094C47.2234 62.2467 47.0459 61.9216 47.0459 61.4334C47.756 57.529 51.3053 54.2754 55.5647 53.6245C56.0969 53.6245 56.4519 53.7872 56.6294 54.2754C56.807 54.7633 56.4519 55.0887 55.9197 55.2514C52.3701 55.902 49.5305 58.505 48.8207 61.7588C48.6432 62.084 48.2882 62.4094 47.9331 62.4094Z" fill="white"/>
<path d="M57.5162 72.9842C56.9836 72.9842 56.6289 72.6588 56.6289 72.1706C56.6289 71.6828 56.9836 71.3573 57.5162 71.3573C62.4853 71.3573 66.3896 67.7783 66.3896 63.223C66.3896 62.7351 66.7447 62.4097 67.2772 62.4097C67.8094 62.4097 68.1645 62.7351 68.1645 63.223C68.1645 68.5916 63.3729 72.9842 57.5162 72.9842Z" fill="white"/>
<path d="M58.1904 70.337L54.168 63.8988V63.0404H54.6362C55.3879 63.0404 56.0196 62.9754 56.5301 62.8454C57.0551 62.7152 57.4666 62.5008 57.7645 62.2015C58.0628 61.9025 58.24 61.4928 58.2968 60.9725H54.168V59.7239H58.2754C58.1763 59.2427 57.9775 58.8523 57.6796 58.5533C57.3816 58.2411 56.9774 58.0134 56.4665 57.8705C55.9697 57.7274 55.3597 57.6558 54.6362 57.6558H54.168V56.4072H62.9791V57.6558H58.9566C59.2828 57.903 59.5525 58.1957 59.7655 58.5338C59.9781 58.8718 60.1129 59.2686 60.1697 59.7239H62.9791V60.9725H60.2124C60.1129 61.9221 59.7156 62.6632 59.0203 63.1965C58.3394 63.7168 57.4312 64.0486 56.2962 64.1914L60.3613 70.337H58.1904Z" fill="#000B6D"/>
</g>
<defs>
<filter id="filter0_d_74_250" x="0" y="0" width="75.7139" height="84.9897" filterUnits="userSpaceOnUse" color-interpolation-filters="sRGB">
<feFlood flood-opacity="0" result="BackgroundImageFix"/>
<feColorMatrix in="SourceAlpha" type="matrix" values="0 0 0 0 0 0 0 0 0 0 0 0 0 0 0 0 0 0 127 0" result="hardAlpha"/>
<feOffset dy="4"/>
<feGaussianBlur stdDeviation="2"/>
<feComposite in2="hardAlpha" operator="out"/>
<feColorMatrix type="matrix" values="0 0 0 0 0 0 0 0 0 0 0 0 0 0 0 0 0 0 0.25 0"/>
<feBlend mode="normal" in2="BackgroundImageFix" result="effect1_dropShadow_74_250"/>
<feBlend mode="normal" in="SourceGraphic" in2="effect1_dropShadow_74_250" result="shape"/>
</filter>
</defs>
</svg>
