<svg width="77" height="67" viewBox="0 0 77 67" fill="none" xmlns="http://www.w3.org/2000/svg">
<path d="M66.1719 21.3248V51.2969H25.2656V21.3248L45.7188 8.375L66.1719 21.3248Z" fill="#DBE1FF"/>
<path d="M45.7188 8.375L25.2656 21.3248V25.2087L45.7188 12.2589L60.1562 21.3981V51.2969H66.1719V21.3248L45.7188 8.375Z" fill="#7D8AFF"/>
<path d="M45.7188 42.9219C53.0279 42.9219 58.9531 37.7662 58.9531 31.4062C58.9531 25.0463 53.0279 19.8906 45.7188 19.8906C38.4096 19.8906 32.4844 25.0463 32.4844 31.4062C32.4844 37.7662 38.4096 42.9219 45.7188 42.9219Z" fill="#7D8AFF"/>
<path d="M58.9531 31.4063C58.9541 32.9187 58.6124 34.4166 57.9476 35.8141C57.2829 37.2116 56.3081 38.4814 55.079 39.5509C53.8499 40.6204 52.3905 41.4686 50.7844 42.047C49.1783 42.6254 47.457 42.9227 45.7188 42.9219C44.706 42.9228 43.6966 42.8209 42.7109 42.6183C45.62 42.0284 48.214 40.5993 50.071 38.5636C51.928 36.5279 52.9387 34.0053 52.9387 31.4063C52.9387 28.8072 51.928 26.2846 50.071 24.2489C48.214 22.2132 45.62 20.7841 42.7109 20.1942C43.6966 19.9916 44.706 19.8897 45.7188 19.8906C47.457 19.8898 49.1783 20.1871 50.7844 20.7655C52.3905 21.3439 53.8499 22.1921 55.079 23.2616C56.3081 24.3311 57.2829 25.6009 57.9476 26.9984C58.6124 28.396 58.9541 29.8938 58.9531 31.4063Z" fill="#000B6D"/>
<path d="M66.1719 3.14062V15.3263L56.5469 9.23344V3.14062H66.1719Z" fill="#000B6D"/>
<path d="M56.5469 5.34863V9.23359L66.1719 15.3264V11.4394L56.5469 5.34863Z" fill="#7D8AFF"/>
<path d="M73.3906 19.8906L69.9016 23.6803L45.7188 8.375L21.5359 23.6803L18.0469 19.8906L43.5423 3.75619C44.1748 3.356 44.9367 3.1405 45.7188 3.14063C46.5008 3.1405 47.2627 3.356 47.8952 3.75619L73.3906 19.8906Z" fill="#000B6D"/>
<path d="M73.168 48.2588C72.8275 47.3707 72.1196 46.6244 71.1819 46.165C70.2443 45.7057 69.1438 45.5662 68.0945 45.7736L49.3173 49.4858L49.3053 49.4837C49.417 48.7302 49.3031 47.9644 48.9747 47.2604C48.6463 46.5565 48.1145 45.9383 47.4308 45.4658L33.3627 35.7644C31.2364 34.2981 28.6031 33.5001 25.89 33.5H15.6406L15.643 53.3906L36.5521 62.488C38.6738 63.4111 41.0176 63.8812 43.3895 63.8593C45.7614 63.8375 48.0933 63.3243 50.192 62.3623L71.0758 52.7897C71.9853 52.373 72.695 51.6885 73.0782 50.8586C73.4615 50.0287 73.4933 49.1073 73.168 48.2588Z" fill="#FFCCBC"/>
<path d="M71.0809 52.7939L50.1947 62.3624C48.2104 63.2714 46.0164 63.7802 43.7753 63.8509C41.5343 63.9215 39.3037 63.5523 37.249 62.7707C37.634 62.8021 38.0311 62.8125 38.4161 62.8125C40.8433 62.8127 43.2341 62.2989 45.3822 61.3155L66.2684 51.7471C67.176 51.3282 67.8832 50.6428 68.2644 49.8127C68.6455 48.9826 68.6758 48.0618 68.3498 47.2141C68.163 46.7294 67.8687 46.2812 67.4836 45.895L68.0971 45.7694C69.1224 45.5715 70.1953 45.7035 71.1172 46.1409C72.0392 46.5784 72.7478 47.2917 73.1119 48.1487C73.4759 49.0058 73.4708 49.9487 73.0974 50.8027C72.724 51.6567 72.0076 52.3641 71.0809 52.7939Z" fill="#FFAB91"/>
<path d="M13.2344 30.3594H3.60938V57.5781H13.2344C13.8726 57.5781 14.4846 57.3575 14.9359 56.9649C15.3871 56.5722 15.6406 56.0397 15.6406 55.4844V32.4531C15.6406 31.8978 15.3871 31.3653 14.9359 30.9726C14.4846 30.58 13.8726 30.3594 13.2344 30.3594Z" fill="#7D8AFF"/>
<path d="M15.6406 32.4531V55.4844C15.6387 56.0392 15.3846 56.5708 14.9337 56.963C14.4829 57.3553 13.872 57.5765 13.2344 57.5781H3.60938V54.4375H7.21875C7.85634 54.4358 8.46728 54.2147 8.91812 53.8224C9.36897 53.4301 9.6231 52.8985 9.625 52.3438V30.3594H13.2344C13.872 30.361 14.4829 30.5822 14.9337 30.9744C15.3846 31.3667 15.6387 31.8983 15.6406 32.4531Z" fill="#000B6D"/>
<path d="M49.0273 47.3713C48.831 47.8304 48.5449 48.2565 48.1815 48.6307C47.3783 49.4187 46.2882 49.9424 45.0939 50.114C43.8995 50.2855 42.6738 50.0945 41.6221 49.5729L30.0156 44.0391C29.7745 43.924 29.5032 43.8654 29.2282 43.8693C28.9532 43.8732 28.6842 43.9394 28.4476 44.0614C28.211 44.1833 28.015 44.3568 27.879 44.5648C27.743 44.7727 27.6716 45.0079 27.6719 45.2472C27.6719 45.494 27.7482 45.7363 27.8928 45.9487C28.0373 46.161 28.2449 46.3356 28.4936 46.4543L41.8327 52.8151C42.7436 53.2507 43.7861 53.4326 44.8197 53.3364C45.8532 53.2401 46.8279 52.8703 47.6122 52.2769C48.3966 51.6834 48.9528 50.8948 49.2059 50.0176C49.4589 49.1404 49.3966 48.2168 49.0273 47.3713Z" fill="#FFAB91"/>
<path d="M52 28.6455V29.7315V29.7446C52 29.9258 51.8158 30.0727 51.5886 30.0727C51.5831 30.0727 51.5768 30.0727 51.5713 30.0727H49.3276C49.1473 31.0781 48.5188 31.9461 47.6113 32.5603L47.6042 32.5653C46.5948 33.2158 45.3284 33.6419 43.942 33.7357L43.9169 33.7369C45.4039 35.0008 47.4478 36.9038 50.0486 39.4457C50.116 39.4989 50.1575 39.572 50.1575 39.6532C50.1575 39.7107 50.1371 39.7638 50.1011 39.8088L50.1019 39.8075C50.0423 39.9213 49.9044 40 49.7422 40C49.732 40 49.7226 40 49.7132 39.9994H49.7147H47.1097C47.105 39.9994 47.0987 39.9994 47.0933 39.9994C46.9632 39.9994 46.848 39.9494 46.7766 39.8719C44.0515 37.2658 41.8331 35.2379 40.123 33.7894C40.0486 33.7313 40.0024 33.6507 40.0024 33.5613C40.0024 33.5588 40.0024 33.557 40.0024 33.5545V32.201C40.0055 32.0135 40.1951 31.8623 40.4295 31.8598H41.9255C42.0031 31.8629 42.0933 31.8642 42.1842 31.8642C43.1215 31.8642 44.0086 31.6936 44.8002 31.3893L44.7641 31.4018C45.4342 31.1343 45.9318 30.6594 46.1293 30.0852L46.1332 30.0708H40.4279C40.4232 30.0708 40.4169 30.0708 40.4114 30.0708C40.1842 30.0708 40 29.924 40 29.7428C40 29.7384 40 29.7334 40 29.729V28.6436C40 28.6399 40 28.6349 40 28.6305C40 28.4493 40.1842 28.3024 40.4114 28.3024H40.4287H45.9451C45.4378 27.5001 44.2445 27.0989 42.3652 27.0989H40.4287C40.1936 27.0964 40.0039 26.9452 40.0008 26.7584V25.3412C40.0008 25.3374 40.0008 25.3324 40.0008 25.3281C40.0008 25.1468 40.185 25 40.4122 25H40.4295H51.5431H51.5596C51.7868 25 51.971 25.1468 51.971 25.3281V25.3418V26.4272V26.4403C51.971 26.6215 51.7868 26.7684 51.5596 26.7684C51.5541 26.7684 51.5478 26.7684 51.5423 26.7684H48.431C48.8433 27.1989 49.1426 27.7157 49.2813 28.2787L49.286 28.3018H51.5697H51.5862C51.8135 28.3018 51.9976 28.4487 51.9976 28.6299V28.6436L52 28.6455Z" fill="white"/>
</svg>
